<?xml version="1.0" encoding="utf-8"?>
<!-- Generator: Adobe Illustrator 18.0.0, SVG Export Plug-In . SVG Version: 6.00 Build 0)  -->
<!DOCTYPE svg PUBLIC "-//W3C//DTD SVG 1.1//EN" "http://www.w3.org/Graphics/SVG/1.1/DTD/svg11.dtd">
<svg version="1.1" id="Слой_1" xmlns="http://www.w3.org/2000/svg" xmlns:xlink="http://www.w3.org/1999/xlink" x="0px" y="0px"
	 viewBox="0 218 1024 369.4" enable-background="new 0 218 1024 369.4" xml:space="preserve">
<path fill="#000000"      d="
	M1020,367.3c-50.2-26.6-154.5-35.8-154.5-35.8l-8.4-1.9c-14.1-6.8-44.1-19.8-44.1-19.8c-26.3-11.8-77.3-8-77.3-8
	c-40.3,1.1-84.5,23.5-84.5,23.5L531,329c0,0-135.2-47.6-185.3-64c1.1-0.5,1.7-1.1,1.7-1.6c0-2.3-9.7-4.2-21.6-4.2
	c-0.1,0-0.1,0-0.2,0c-1.5-0.1-3.6-0.1-6.4,0.2c-6.7,0.4-12,1.5-14,2.8c-9.5,2.5-22.5,7.1-40.1,14.9c0,0-7.5,2.8-1.9,4.7l11.7,30.9
	l-6,48.1L134.4,233c0,0,15-1.1,20.6-4c0,0,6.3-6-22.8-3.5l-50,4l1,7.4l4.5,0.6l16.5,68.2l-41.6,3l8,36.6l6,51.3h6l13.6,67.7
	l-47.1,17.9L1,549.9c0,0,28.1,15.5,49.6,7l118.8-56.7l-15.5-1.5l30.6-16.6l66.7-1l-2.5,26.6l-28.6,55.2c0,0-8,5.5,0,8
	c0,0,52.8,15.8,61,15c0,0,19,3.3,43.8,0c0,0,3.7-3.3-1.5-4.9l142.9-89.2l3.2-2.3l6,0c58.1-0.4,93.3-8.6,93.3-8.6
	c-2.2-3.9-21.5-3.6-21.5-3.6c56.7-7.2,89.4-19.4,89.4-19.4c19.7-7.2,15.6-14,15.6-14c15.4-4.3,76.8-35.2,76.8-35.2
	c16.5-1.5,61.3-7.1,61.3-7.1c4-0.1,10.1-0.3,17.3-0.7c-0.1,0.3-0.1,0.7-0.1,1c0,2.4,1.5,4.3,3.4,4.3c1.9,0,3.4-1.9,3.4-4.3
	c0-0.5-0.1-0.9-0.2-1.3c24.2-1.3,57.1-3.4,73.3-4.4c0,0.2,0,0.4,0,0.6c0,2.4,1.5,4.3,3.4,4.3c1.9,0,3.4-1.9,3.4-4.3
	c0-0.4,0-0.7-0.1-1c1.9-0.1,3-0.2,3-0.2C994.9,385.1,1020,367.3,1020,367.3z"/>
</svg>
